<svg width="16" height="14" viewBox="0 0 16 14" fill="none" xmlns="http://www.w3.org/2000/svg">
<path d="M14.6667 0.777832H1.33333C0.597222 0.777832 0 1.37505 0 2.11117V11.8889C0 12.6251 0.597222 13.2223 1.33333 13.2223H14.6667C15.4028 13.2223 16 12.6251 16 11.8889V2.11117C16 1.37505 15.4028 0.777832 14.6667 0.777832ZM4.88889 3.4445C5.86944 3.4445 6.66667 4.24172 6.66667 5.22228C6.66667 6.20283 5.86944 7.00005 4.88889 7.00005C3.90833 7.00005 3.11111 6.20283 3.11111 5.22228C3.11111 4.24172 3.90833 3.4445 4.88889 3.4445ZM8 10.0223C8 10.3167 7.72222 10.5556 7.37778 10.5556H2.4C2.05556 10.5556 1.77778 10.3167 1.77778 10.0223V9.48894C1.77778 8.60561 2.61389 7.88894 3.64444 7.88894H3.78333C4.125 8.03061 4.49722 8.11117 4.88889 8.11117C5.28056 8.11117 5.65556 8.03061 5.99444 7.88894H6.13333C7.16389 7.88894 8 8.60561 8 9.48894V10.0223ZM14.2222 8.55561C14.2222 8.67783 14.1222 8.77783 14 8.77783H10C9.87778 8.77783 9.77778 8.67783 9.77778 8.55561V8.11117C9.77778 7.98894 9.87778 7.88894 10 7.88894H14C14.1222 7.88894 14.2222 7.98894 14.2222 8.11117V8.55561ZM14.2222 6.77783C14.2222 6.90005 14.1222 7.00005 14 7.00005H10C9.87778 7.00005 9.77778 6.90005 9.77778 6.77783V6.33339C9.77778 6.21117 9.87778 6.11117 10 6.11117H14C14.1222 6.11117 14.2222 6.21117 14.2222 6.33339V6.77783ZM14.2222 5.00005C14.2222 5.12228 14.1222 5.22228 14 5.22228H10C9.87778 5.22228 9.77778 5.12228 9.77778 5.00005V4.55561C9.77778 4.43339 9.87778 4.33339 10 4.33339H14C14.1222 4.33339 14.2222 4.43339 14.2222 4.55561V5.00005Z" fill="white"/>
</svg>
