<svg width="36" height="37" viewBox="0 0 36 37" fill="none" xmlns="http://www.w3.org/2000/svg">
<g clip-path="url(#clip0_875_67)">
<path d="M12.0001 36.0071C15.3121 36.0071 18.0002 33.319 18.0002 30.007V24.007H12.0001C8.68807 24.007 6 26.695 6 30.007C6 33.319 8.68807 36.0071 12.0001 36.0071Z" fill="white"/>
<path d="M6 18.007C6 14.695 8.68807 12.007 12.0001 12.007H18.0002V24.0069H12.0001C8.68807 24.0071 6 21.319 6 18.007Z" fill="white"/>
<path d="M6 6.00713C6 2.69513 8.68807 0.00708008 12.0001 0.00708008H18.0002V12.007H12.0001C8.68807 12.007 6 9.31913 6 6.00713Z" fill="white"/>
<path d="M18 0.00708008H24.0001C27.3121 0.00708008 30.0002 2.69513 30.0002 6.00713C30.0002 9.31913 27.3121 12.007 24.0001 12.007H18V0.00708008Z" fill="white"/>
<path d="M30.0002 18.007C30.0002 21.319 27.3121 24.0071 24.0001 24.0071C20.6881 24.0071 18 21.319 18 18.007C18 14.695 20.6881 12.007 24.0001 12.007C27.3121 12.007 30.0002 14.695 30.0002 18.007Z" fill="white"/>
</g>
<defs>
<clipPath id="clip0_875_67">
<rect width="36" height="36" fill="white" transform="translate(0 0.00708008)"/>
</clipPath>
</defs>
</svg>
