<svg width="16" height="14" viewBox="0 0 16 14" fill="none" xmlns="http://www.w3.org/2000/svg">
<path d="M4.3628 0.359808C4.32796 0.324848 4.28656 0.297109 4.24098 0.278182C4.1954 0.259255 4.14653 0.249512 4.09718 0.249512C4.04782 0.249512 3.99895 0.259255 3.95337 0.278182C3.90779 0.297109 3.86639 0.324848 3.83155 0.359808L1.84155 2.33825L1.13217 1.647C1.09733 1.61204 1.05594 1.5843 1.01035 1.56537C0.964772 1.54644 0.915902 1.5367 0.866547 1.5367C0.817191 1.5367 0.768321 1.54644 0.72274 1.56537C0.677158 1.5843 0.63576 1.61204 0.600921 1.647L0.110296 2.13825C0.0753358 2.17309 0.0475969 2.21448 0.0286699 2.26007C0.00974287 2.30565 0 2.35452 0 2.40387C0 2.45323 0.00974287 2.5021 0.0286699 2.54768C0.0475969 2.59326 0.0753358 2.63466 0.110296 2.6695L1.59748 4.15075C1.67172 4.22131 1.77022 4.26066 1.87264 4.26066C1.97506 4.26066 2.07357 4.22131 2.1478 4.15075L2.63499 3.66262L4.89124 1.40668C4.96154 1.33633 5.00126 1.24109 5.00179 1.14164C5.00231 1.04218 4.9636 0.946528 4.89405 0.875433L4.3628 0.359808ZM4.3628 5.3345C4.32796 5.29954 4.28656 5.2718 4.24098 5.25287C4.1954 5.23395 4.14653 5.2242 4.09718 5.2242C4.04782 5.2242 3.99895 5.23395 3.95337 5.25287C3.90779 5.2718 3.86639 5.29954 3.83155 5.3345L1.84155 7.32575L1.13217 6.63513C1.09733 6.60017 1.05594 6.57243 1.01035 6.5535C0.964772 6.53457 0.915902 6.52483 0.866547 6.52483C0.817191 6.52483 0.768321 6.53457 0.72274 6.5535C0.677158 6.57243 0.63576 6.60017 0.600921 6.63513L0.110296 7.12544C0.0753358 7.16028 0.0475969 7.20168 0.0286699 7.24726C0.00974287 7.29284 0 7.34171 0 7.39107C0 7.44042 0.00974287 7.48929 0.0286699 7.53487C0.0475969 7.58045 0.0753358 7.62185 0.110296 7.65669L1.59373 9.14107C1.66792 9.21161 1.76637 9.25095 1.86874 9.25095C1.9711 9.25095 2.06956 9.21161 2.14374 9.14107L2.63436 8.65075L4.89061 6.39388C4.96064 6.32401 5.00023 6.22931 5.00076 6.13039C5.00129 6.03148 4.96271 5.93636 4.89343 5.86575L4.3628 5.3345ZM1.99999 10.7504C1.17217 10.7504 0.481546 11.4223 0.481546 12.2504C0.481546 13.0786 1.1728 13.7504 1.99999 13.7504C2.39781 13.7504 2.77934 13.5924 3.06065 13.3111C3.34195 13.0298 3.49999 12.6483 3.49999 12.2504C3.49999 11.8526 3.34195 11.4711 3.06065 11.1898C2.77934 10.9085 2.39781 10.7504 1.99999 10.7504ZM15.5 11.2504H6.49999C6.36738 11.2504 6.2402 11.3031 6.14644 11.3969C6.05267 11.4907 5.99999 11.6178 5.99999 11.7504V12.7504C5.99999 12.8831 6.05267 13.0102 6.14644 13.104C6.2402 13.1978 6.36738 13.2504 6.49999 13.2504H15.5C15.6326 13.2504 15.7598 13.1978 15.8536 13.104C15.9473 13.0102 16 12.8831 16 12.7504V11.7504C16 11.6178 15.9473 11.4907 15.8536 11.3969C15.7598 11.3031 15.6326 11.2504 15.5 11.2504ZM15.5 1.25043H6.49999C6.36738 1.25043 6.2402 1.30311 6.14644 1.39688C6.05267 1.49065 5.99999 1.61783 5.99999 1.75043V2.75044C5.99999 2.88304 6.05267 3.01022 6.14644 3.10399C6.2402 3.19776 6.36738 3.25044 6.49999 3.25044H15.5C15.6326 3.25044 15.7598 3.19776 15.8536 3.10399C15.9473 3.01022 16 2.88304 16 2.75044V1.75043C16 1.61783 15.9473 1.49065 15.8536 1.39688C15.7598 1.30311 15.6326 1.25043 15.5 1.25043ZM15.5 6.25044H6.49999C6.36738 6.25044 6.2402 6.30312 6.14644 6.39689C6.05267 6.49065 5.99999 6.61783 5.99999 6.75044V7.75044C5.99999 7.88305 6.05267 8.01023 6.14644 8.10399C6.2402 8.19776 6.36738 8.25044 6.49999 8.25044H15.5C15.6326 8.25044 15.7598 8.19776 15.8536 8.10399C15.9473 8.01023 16 7.88305 16 7.75044V6.75044C16 6.61783 15.9473 6.49065 15.8536 6.39689C15.7598 6.30312 15.6326 6.25044 15.5 6.25044Z" fill="white"/>
</svg>
